<?xml version="1.0" standalone="no"?>
<!DOCTYPE svg PUBLIC "-//W3C//DTD SVG 20010904//EN"
 "http://www.w3.org/TR/2001/REC-SVG-20010904/DTD/svg10.dtd">
<svg version="1.0" xmlns="http://www.w3.org/2000/svg"
 width="512.000000pt" height="512.000000pt" viewBox="0 0 512.000000 512.000000"
 preserveAspectRatio="xMidYMid meet">
<metadata>
Created by potrace 1.11, written by Peter Selinger 2001-2013
</metadata>
<g transform="translate(0.000000,512.000000) scale(0.100000,-0.100000)"
fill="#000000" stroke="none">
<path d="M820 4785 c-175 -38 -349 -173 -429 -335 -75 -154 -71 -33 -71 -1890
0 -1857 -4 -1736 71 -1890 81 -164 255 -298 434 -335 105 -22 3365 -22 3470 0
181 38 349 168 433 335 76 152 72 31 72 1890 0 1859 4 1738 -72 1890 -84 167
-252 297 -433 335 -102 21 -3375 21 -3475 0z m1920 -988 c443 -98 650 -325
650 -715 0 -125 -22 -226 -70 -327 -70 -147 -221 -289 -377 -356 l-46 -19 46
-31 c26 -17 68 -54 94 -83 39 -44 573 -900 573 -920 0 -11 -563 -6 -603 5 -69
19 -104 68 -333 468 -260 456 -238 432 -405 439 l-109 5 0 -462 0 -461 -290 0
-290 0 0 1241 0 1240 543 -4 c454 -3 554 -7 617 -20z"/>
<path d="M2162 3023 l3 -368 163 2 c231 2 319 28 407 119 66 67 89 136 89 264
1 95 -2 110 -27 162 -69 141 -186 188 -470 188 l-167 0 2 -367z"/>
</g>
</svg>
